<?xml version="1.0" standalone="no"?><!DOCTYPE svg PUBLIC "-//W3C//DTD SVG 1.1//EN" "http://www.w3.org/Graphics/SVG/1.1/DTD/svg11.dtd"><svg t="1605674889054" class="icon" viewBox="0 0 1024 1024" version="1.1" xmlns="http://www.w3.org/2000/svg" p-id="8912" xmlns:xlink="http://www.w3.org/1999/xlink" width="32" height="32"><defs><style type="text/css"></style></defs><path d="M369.06666667 468.48H180.37333333c-51.2 0-92.90666667-41.70666667-92.90666666-92.90666667V186.88c0-51.2 41.70666667-92.90666667 92.90666666-92.90666667H369.06666667c51.2 0 92.90666667 41.70666667 92.90666666 92.90666667v188.69333333c0 51.2-41.70666667 92.90666667-92.90666666 92.90666667z m-188.69333334-321.06666667c-21.76 0-39.57333333 17.70666667-39.57333333 39.57333334v188.69333333c0 21.76 17.70666667 39.57333333 39.57333333 39.57333333H369.06666667c21.76 0 39.57333333-17.70666667 39.57333333-39.57333333v-188.8c0-21.76-17.70666667-39.57333333-39.57333333-39.57333333H180.37333333zM369.06666667 928.10666667H180.37333333c-51.2 0-92.90666667-41.70666667-92.90666666-92.90666667V646.50666667c0-51.2 41.70666667-92.90666667 92.90666666-92.90666667H369.06666667c51.2 0 92.90666667 41.70666667 92.90666666 92.90666667V835.2c0 51.2-41.70666667 92.90666667-92.90666666 92.90666667z m-188.69333334-321.06666667c-21.76 0-39.57333333 17.70666667-39.57333333 39.57333333V835.2c0 21.76 17.70666667 39.57333333 39.57333333 39.57333333H369.06666667c21.76 0 39.57333333-17.70666667 39.57333333-39.57333333V646.50666667c0-21.76-17.70666667-39.57333333-39.57333333-39.57333334H180.37333333zM828.90666667 928.10666667H640.21333333c-51.2 0-92.90666667-41.70666667-92.90666666-92.90666667V646.50666667c0-51.2 41.70666667-92.90666667 92.90666666-92.90666667h188.69333334c51.2 0 92.90666667 41.70666667 92.90666666 92.90666667V835.2c0 51.2-41.70666667 92.90666667-92.90666666 92.90666667z m-188.69333334-321.06666667c-21.76 0-39.57333333 17.70666667-39.57333333 39.57333333V835.2c0 21.76 17.70666667 39.57333333 39.57333333 39.57333333h188.69333334c21.76 0 39.57333333-17.70666667 39.57333333-39.57333333V646.50666667c0-21.76-17.70666667-39.57333333-39.57333333-39.57333334H640.21333333zM734.61333333 476.58666667c-24.85333333 0-48.21333333-9.6-65.70666666-27.09333334L566.4 346.88c-17.49333333-17.49333333-27.09333333-40.85333333-27.09333333-65.70666667 0-24.85333333 9.6-48.21333333 27.09333333-65.70666666l102.61333333-102.61333334c17.49333333-17.49333333 40.85333333-27.09333333 65.70666667-27.09333333 24.85333333 0 48.21333333 9.6 65.70666667 27.09333333l102.61333333 102.61333334c17.49333333 17.49333333 27.09333333 40.85333333 27.09333333 65.70666666 0 24.85333333-9.6 48.21333333-27.09333333 65.70666667l-102.61333333 102.61333333c-17.70666667 17.49333333-40.96 27.09333333-65.81333334 27.09333334zM706.66666667 411.73333333c7.46666667 7.46666667 17.38666667 11.52 27.94666666 11.52 10.56 0 20.58666667-4.05333333 27.94666667-11.52l102.61333333-102.61333333c7.46666667-7.46666667 11.52-17.38666667 11.52-27.94666667 0-10.56-4.05333333-20.58666667-11.52-27.94666666l-102.61333333-102.61333334c-7.46666667-7.46666667-17.38666667-11.52-27.94666667-11.52-10.56 0-20.58666667 4.05333333-27.94666666 11.52l-102.61333334 102.61333334c-7.46666667 7.46666667-11.52 17.38666667-11.52 27.94666666 0 10.56 4.05333333 20.58666667 11.52 27.94666667l102.61333334 102.61333333z" fill="#515151" p-id="8913"></path></svg>
