<?xml version="1.0" standalone="no"?><!DOCTYPE svg PUBLIC "-//W3C//DTD SVG 1.1//EN" "http://www.w3.org/Graphics/SVG/1.1/DTD/svg11.dtd"><svg t="1605671987220" class="icon" viewBox="0 0 1024 1024" version="1.1" xmlns="http://www.w3.org/2000/svg" p-id="7324" xmlns:xlink="http://www.w3.org/1999/xlink" width="16" height="16"><defs><style type="text/css"></style></defs><path d="M873.536 937.984H150.464a85.312 85.312 0 0 1-85.248-85.184V238.656c0-46.976 38.208-85.184 85.248-85.184H873.6c46.976 0 85.248 38.208 85.248 85.184v614.144a85.312 85.312 0 0 1-85.312 85.184zM150.464 201.472a37.248 37.248 0 0 0-37.248 37.184v614.144c0 20.48 16.704 37.184 37.248 37.184H873.6a37.248 37.248 0 0 0 37.248-37.184V238.656a37.248 37.248 0 0 0-37.248-37.184H150.464z" p-id="7325"></path><path d="M110.016 324.736h804.032v28.032H110.016zM398.016 236.736a24 24 0 0 1-48 0V116.736a24 24 0 0 1 48 0v120zM674.048 236.736a24 24 0 0 1-48 0V116.736a24 24 0 0 1 48 0v120z" p-id="7326"></path><path d="M298.688 528.384m-42.624 0a42.624 42.624 0 1 0 85.248 0 42.624 42.624 0 1 0-85.248 0Z" p-id="7327"></path><path d="M511.616 528.384m-42.624 0a42.624 42.624 0 1 0 85.248 0 42.624 42.624 0 1 0-85.248 0Z" p-id="7328"></path><path d="M725.632 528.384m-42.624 0a42.624 42.624 0 1 0 85.248 0 42.624 42.624 0 1 0-85.248 0Z" p-id="7329"></path><path d="M298.688 705.344m-42.624 0a42.624 42.624 0 1 0 85.248 0 42.624 42.624 0 1 0-85.248 0Z" p-id="7330"></path><path d="M511.936 705.344m-42.624 0a42.624 42.624 0 1 0 85.248 0 42.624 42.624 0 1 0-85.248 0Z" p-id="7331"></path><path d="M725.632 705.344m-42.624 0a42.624 42.624 0 1 0 85.248 0 42.624 42.624 0 1 0-85.248 0Z" p-id="7332"></path></svg>